<svg width="42" height="42" viewBox="0 0 42 42" fill="none" xmlns="http://www.w3.org/2000/svg">
<path d="M35.0875 19.25H6.9125C5.99433 19.25 5.25 19.9943 5.25 20.9125V21.0875C5.25 22.0057 5.99433 22.75 6.9125 22.75H35.0875C36.0057 22.75 36.75 22.0057 36.75 21.0875V20.9125C36.75 19.9943 36.0057 19.25 35.0875 19.25Z" fill="#FFC700"/>
<path d="M35.0875 28H6.9125C5.99433 28 5.25 28.7443 5.25 29.6625V29.8375C5.25 30.7557 5.99433 31.5 6.9125 31.5H35.0875C36.0057 31.5 36.75 30.7557 36.75 29.8375V29.6625C36.75 28.7443 36.0057 28 35.0875 28Z" fill="#FFC700"/>
<path d="M35.0875 10.5H6.9125C5.99433 10.5 5.25 11.2443 5.25 12.1625V12.3375C5.25 13.2557 5.99433 14 6.9125 14H35.0875C36.0057 14 36.75 13.2557 36.75 12.3375V12.1625C36.75 11.2443 36.0057 10.5 35.0875 10.5Z" fill="#FFC700"/>
</svg>
